<?xml version="1.0" encoding="utf-8"?>
<!-- Svg Vector Icons : http://www.onlinewebfonts.com/icon -->
<!DOCTYPE svg PUBLIC "-//W3C//DTD SVG 1.1//EN" "http://www.w3.org/Graphics/SVG/1.1/DTD/svg11.dtd">
<svg version="1.1" xmlns="http://www.w3.org/2000/svg" xmlns:xlink="http://www.w3.org/1999/xlink" x="0px" y="0px" viewBox="0 0 1000 1000" enable-background="new 0 0 1000 1000" xml:space="preserve">
<metadata> Svg Vector Icons : http://www.onlinewebfonts.com/icon </metadata>
<g><g transform="translate(0.000000,511.000000) scale(0.100000,-0.100000)"><path d="M4132.7,4636.4c-197-48.2-376.6-197-470.7-385.3l-54.7-109.5v-1237v-1237l50.4-98.5c76.6-157.6,164.2-249.6,315.3-330.6l137.9-74.4h2112.7h2112.7l109.5,54.7c140.1,67.9,271.5,199.2,339.4,339.3l54.7,109.5v1237v1237l-54.7,109.5c-67.9,140.1-199.2,271.5-339.4,339.3l-109.5,54.7l-2068.9,4.4C5128.8,4649.5,4169.9,4645.2,4132.7,4636.4z M4997.5,3605.2v-350.3h-350.3h-350.3v350.3v350.3h350.3h350.3V3605.2z M4997.5,2028.9v-175.1h-350.3h-350.3v175.1v175.1h350.3h350.3V2028.9z M6048.4,2028.9v-175.1h-350.3h-350.3v175.1v175.1h350.3h350.3V2028.9z M7099.2,2028.9v-175.1h-350.3h-350.3v175.1v175.1h350.3h350.3V2028.9z M8150.1,2028.9v-175.1h-350.3h-350.3v175.1v175.1h350.3h350.3V2028.9z"/><path d="M3108.1,80.4c-289-46-650.2-192.7-880.1-359c-59.1-43.8-562.7-523.3-1118.7-1068.4L100-2338.7L1142.1-3383c573.6-575.8,1048.7-1046.5,1055.2-1046.5c6.6,0,166.4,232.1,354.7,514.5l343.7,512.3l1909.1,6.6l1911.3,6.6l175.1,61.3c286.8,102.9,405,190.5,886.7,661.2c247.4,240.8,812.2,792.5,1256.7,1226c442.2,433.5,818.8,814.4,836.3,847.3c43.8,85.4,37.2,214.6-13.1,297.7c-30.7,50.4-89.7,94.2-190.5,140.1C9433-46.5,9155-64.1,8872.6-204.2c-43.8-21.9-562.7-435.7-1158.1-917.3l-1079.3-877.9h-814.4h-812.3l-172.9,172.9l-173,175.2l742.2,6.6c707.1,6.6,748.7,8.8,862.6,56.9C6665.7-1428,6840.9-1066.7,6703-699c-56.9,153.2-225.5,313.1-405,385.3c-124.8,50.4-157.6,52.5-873.5,67.9c-803.5,15.3-801.3,15.3-1107.8,151c-280.2,127-510.1,177.4-818.8,186.1C3353.3,95.8,3178.2,91.4,3108.1,80.4z"/></g></g>
</svg>